<?xml version="1.0" encoding="UTF-8" standalone="no"?>
<!-- Created with Inkscape (http://www.inkscape.org/) -->

<svg
   width="2200.0227mm"
   height="1229.9945mm"
   viewBox="0 0 2200.0227 1229.9944"
   version="1.1"
   id="svg1"
   xml:space="preserve"
   inkscape:version="1.3 (0e150ed6c4, 2023-07-21)"
   sodipodi:docname="CrosssectionTank.svg"
   xmlns:inkscape="http://www.inkscape.org/namespaces/inkscape"
   xmlns:sodipodi="http://sodipodi.sourceforge.net/DTD/sodipodi-0.dtd"
   xmlns="http://www.w3.org/2000/svg"
   xmlns:svg="http://www.w3.org/2000/svg"><sodipodi:namedview
     id="namedview1"
     pagecolor="#ffffff"
     bordercolor="#666666"
     borderopacity="1.0"
     inkscape:showpageshadow="2"
     inkscape:pageopacity="0.0"
     inkscape:pagecheckerboard="0"
     inkscape:deskcolor="#d1d1d1"
     inkscape:document-units="mm"
     inkscape:zoom="0.13795427"
     inkscape:cx="4483.3697"
     inkscape:cy="2421.0921"
     inkscape:window-width="1920"
     inkscape:window-height="1163"
     inkscape:window-x="0"
     inkscape:window-y="0"
     inkscape:window-maximized="1"
     inkscape:current-layer="g7" /><defs
     id="defs1"><marker
       style="overflow:visible"
       id="Stop"
       refX="0"
       refY="0"
       orient="auto"
       inkscape:stockid="Stop"
       markerWidth="1"
       markerHeight="1"
       viewBox="0 0 1 1"
       inkscape:isstock="true"
       inkscape:collect="always"
       preserveAspectRatio="xMidYMid"><path
         style="fill:none;stroke:context-stroke;stroke-width:1"
         d="M 0,4 V -4"
         id="path3" /></marker></defs><g
     inkscape:label="bottom cross section"
     inkscape:groupmode="layer"
     id="layer1"
     transform="translate(-6.38706, -82.5118)"
     style="display:inline"><path
       id="path23"
       style="fill:none;stroke:#8b0000;stroke-width:3;stroke-linecap:butt;stroke-linejoin:miter;stroke-dasharray:none;stroke-opacity:1"
       d="M 6.7870585,124.60517 V 374.12334 L 97.828859,404.50062 V 580.89427 L 6.7870585,613.79669 v 176.588 L 97.828859,814.70737 V 992.40871 L 6.7870585,1026.9408 v 245.2117 l 2199.2227415,0.6059 v -246.3392 l -96.3263,-37.15677 V 820.15771 l 96.3263,-26.01875 V 617.50258 l -96.3263,-35.34227 V 404.02784 l 96.3263,-30.74202 V 123.42546 Z"
       sodipodi:nodetypes="ccccccccccccccccccccc" /><text
       x="402.62878"
       y="411.5621"
       id="text29-5"
       style="font-size:110.299px;stroke-width:1"><tspan
         sodipodi:role="line"
         style="font-style:normal;font-weight:normal;font-size:145.917px;text-align:center;text-anchor:start;fill:#000000;fill-opacity:1;stroke:none;stroke-width:1"
         id="tspan29-3"
         x="402.62878"
         y="411.5621">1 m<tspan
   style="font-size:94.8459px;baseline-shift:super;stroke-width:1"
   id="tspan28-5" /></tspan></text><path
       style="fill:none;stroke:#000000;stroke-width:5;stroke-linecap:butt;stroke-linejoin:miter;stroke-dasharray:none;stroke-opacity:1;marker-start:url(#Stop);marker-end:url(#Stop)"
       d="M 148.64492,261.1168 H 1148.645"
       id="path1" /><text
       x="641.87164"
       y="1102.8796"
       id="text8"
       style="font-size:141.111px;fill:#800000"><tspan
         sodipodi:role="line"
         style="font-style:normal;font-weight:normal;font-size:141.111px;text-align:center;text-anchor:start;fill:#800000;fill-opacity:1;stroke:none"
         dy="36"
         id="tspan8"
         x="641.87164"
         y="1102.8796">2.458 m<tspan
   style="font-size:141.111px;baseline-shift:super;fill:#800000"
   id="tspan7">2</tspan></tspan></text></g><g
     inkscape:label="center crosssection"
     inkscape:groupmode="layer"
     id="g7"
     transform="translate(-6.38706,-82.5118)"
     style="display:inline"><path
       id="path4"
       style="fill:none;stroke:#000000;stroke-width:3;stroke-linecap:butt;stroke-linejoin:miter;stroke-dasharray:none;stroke-opacity:1"
       d="m 210.3006,82.914558 a 37.159466,35.140004 0 0 0 -36.7,35.422802 37.159466,35.140004 0 0 0 0.30119,3.57213 H 173.083 L 6.7870585,124.60517 V 374.12334 L 97.828859,404.50062 V 580.89427 L 6.7870585,613.79669 v 176.588 L 97.828859,814.70737 V 992.40871 L 6.7870585,1026.9408 v 245.2117 l 166.7146715,0.05 a 37.159466,35.140004 0 0 0 -0.34353,5.0408 37.159466,35.140004 0 0 0 37.31175,34.8543 37.159466,35.140004 0 0 0 37.00587,-35.1433 l -0.005,-0.5734 a 37.159466,35.140004 0 0 0 -0.38586,-4.1596 l 182.05063,0.05 a 37.159466,35.140004 0 0 0 -0.33409,4.9697 37.159466,35.140004 0 0 0 37.31175,34.8543 37.159466,35.140004 0 0 0 37.00587,-35.1433 l -0.005,-0.5733 a 37.159466,35.140004 0 0 0 -0.37643,-4.0884 l 182.03652,0.05 a 37.159466,35.140004 0 0 0 -0.32476,4.9035 37.159466,35.140004 0 0 0 37.30705,34.8543 37.159466,35.140004 0 0 0 37.01056,-35.1433 l -0.005,-0.5734 a 37.159466,35.140004 0 0 0 -0.37643,-4.0222 l 182.03173,0.05 a 37.159466,35.140004 0 0 0 -0.32416,4.837 37.159466,35.140004 0 0 0 37.31171,34.8543 37.159466,35.140004 0 0 0 37.00589,-35.1433 v -0.5734 a 37.159466,35.140004 0 0 0 -0.3673,-3.9557 l 182.0179,0.05 a 37.159466,35.140004 0 0 0 -0.3201,4.766 37.159466,35.140004 0 0 0 37.3117,34.8543 37.159466,35.140004 0 0 0 37.006,-35.1433 v -0.5734 a 37.159466,35.140004 0 0 0 -0.3581,-3.8847 l 182.0035,0.05 a 37.159466,35.140004 0 0 0 -0.315,4.6996 37.159466,35.140004 0 0 0 37.3118,34.8543 37.159466,35.140004 0 0 0 37.0058,-35.1433 v -0.5734 a 37.159466,35.140004 0 0 0 -0.3531,-3.8184 l 181.9941,0.05 a 37.159466,35.140004 0 0 0 -0.306,4.6332 37.159466,35.140004 0 0 0 37.3071,34.8544 37.159466,35.140004 0 0 0 37.0105,-35.1433 v -0.5734 a 37.159466,35.140004 0 0 0 -0.3521,-3.752 l 181.9894,0.05 a 37.159466,35.140004 0 0 0 -0.306,4.567 37.159466,35.140004 0 0 0 37.3118,34.8543 37.159466,35.140004 0 0 0 37.0058,-35.1432 v -0.5734 a 37.159466,35.140004 0 0 0 -0.3391,-3.681 l 169.3404,0.05 v -246.3392 l -96.3263,-37.15677 V 820.15771 l 96.3263,-26.01875 V 617.50258 l -96.3263,-35.34227 V 404.02784 l 96.3263,-30.74202 V 123.42546 l -168.9922,-0.12735 a 37.159466,35.140004 0 0 0 0.4384,-5.24451 v -0.5776 a 37.159466,35.140004 0 0 0 -37.613,-34.560567 37.159466,35.140004 0 0 0 -36.7001,35.422797 37.159466,35.140004 0 0 0 0.4144,4.90814 l -182.1353,-0.1375 a 37.159466,35.140004 0 0 0 0.3953,-5.05501 v -0.5775 a 37.159466,35.140004 0 0 0 -37.613,-34.560585 37.159466,35.140004 0 0 0 -36.6999,35.422805 37.159466,35.140004 0 0 0 0.3952,4.71864 l -182.0929,-0.13751 a 37.159466,35.140004 0 0 0 0.3672,-4.86551 v -0.57749 a 37.159466,35.140004 0 0 0 -37.6082,-34.560583 37.159466,35.140004 0 0 0 -36.7047,35.422813 37.159466,35.140004 0 0 0 0.3813,4.52436 l -182.0601,-0.13298 a 37.159466,35.140004 0 0 0 0.3531,-4.67601 v -0.57749 a 37.159466,35.140004 0 0 0 -37.6083,-34.560582 37.159466,35.140004 0 0 0 -36.7046,35.422812 37.159466,35.140004 0 0 0 0.3621,4.33487 l -182.027,-0.13751 a 37.159466,35.140004 0 0 0 0.3391,-4.48175 v -0.57759 a 37.159466,35.140004 0 0 0 -37.61284,-34.560581 37.159466,35.140004 0 0 0 -36.70005,35.422811 37.159466,35.140004 0 0 0 0.34784,4.14538 l -181.9988,-0.13751 a 37.159466,35.140004 0 0 0 0.32477,-4.29224 l -0.009,-0.5776 a 37.159466,35.140004 0 0 0 -37.60821,-34.560579 37.159466,35.140004 0 0 0 -36.70471,35.422809 37.159466,35.140004 0 0 0 0.3341,3.95588 l -181.97064,-0.1375 a 37.159466,35.140004 0 0 0 0.31061,-4.10275 l -0.005,-0.5776 a 37.159466,35.140004 0 0 0 -37.60821,-34.560578 37.159466,35.140004 0 0 0 -36.70471,35.422808 37.159466,35.140004 0 0 0 0.31524,3.76162 l -181.93771,-0.13298 a 37.159466,35.140004 0 0 0 0.29647,-3.91325 l -0.005,-0.5775 A 37.159466,35.140004 0 0 0 210.302,82.917133 Z" /><text
       x="644.77155"
       y="600.87177"
       id="text5"
       style="font-size:110.299px;stroke-width:1"><tspan
         sodipodi:role="line"
         style="font-style:normal;font-weight:normal;font-size:145.917px;text-align:center;text-anchor:start;fill:#000000;fill-opacity:1;stroke:none;stroke-width:1"
         dy="330.89777"
         id="tspan5"
         x="644.77155"
         y="600.87177">2.489 m<tspan
   style="font-size:94.8459px;baseline-shift:super;stroke-width:1"
   id="tspan4">2</tspan></tspan></text><text
       x="402.62878"
       y="411.5621"
       id="text7"
       style="font-size:110.299px;stroke-width:1"><tspan
         sodipodi:role="line"
         style="font-style:normal;font-weight:normal;font-size:145.917px;text-align:center;text-anchor:start;fill:#000000;fill-opacity:1;stroke:none;stroke-width:1"
         id="tspan9"
         x="402.62878"
         y="411.5621">1 m<tspan
   style="font-size:94.8459px;baseline-shift:super;stroke-width:1"
   id="tspan6" /></tspan></text><path
       style="fill:none;stroke:#000000;stroke-width:5;stroke-linecap:butt;stroke-linejoin:miter;stroke-dasharray:none;stroke-opacity:1;marker-start:url(#Stop);marker-end:url(#Stop)"
       d="M 148.64492,261.1168 H 1148.645"
       id="path7" /></g></svg>
